<?xml version="1.0" encoding="UTF-8"?><svg id="svg5" width="512" height="512" version="1.1" viewBox="0 0 512 512" xml:space="preserve" xmlns="http://www.w3.org/2000/svg"><g id="layer1"><path id="path103" d="m506 256a250 250 0 0 1-248.51 250 250 250 0 0 1-251.48-247.01 250 250 0 0 1 245.5-252.95 250 250 0 0 1 254.41 243.98" fill="#9c27b0"/><g id="g1" transform="matrix(25,0,0,25,56,56)" clip-rule="evenodd" fill-rule="evenodd"><path id="path1" d="m8 4c-2.2091 0-4 1.7909-4 4 0 2.2091 1.7909 4 4 4 2.2091 0 4-1.7909 4-4 0-2.2091-1.7909-4-4-4zm-2 4c0-1.1046 0.89543-2 2-2s2 0.89543 2 2-0.89543 2-2 2-2-0.89543-2-2z"/><path id="path2" d="m8 0c-4.4183 0-8 3.5817-8 8 0 4.4183 3.5817 8 8 8 4.4183 0 8-3.5817 8-8 0-4.4183-3.5817-8-8-8zm-6 8c0-3.3137 2.6863-6 6-6 3.3137 0 6 2.6863 6 6 0 3.3137-2.6863 6-6 6-3.3137 0-6-2.6863-6-6z"/></g></g></svg>
